<?xml version="1.0" encoding="UTF-8"?>
<svg id="Capa_1" data-name="Capa 1" xmlns="http://www.w3.org/2000/svg" xmlns:xlink="http://www.w3.org/1999/xlink" viewBox="0 0 2259.12 2048" role="img" aria-label="M3E Explode for Flutter animated icon">
  <defs>
    <style>
      .cls-1 {
        fill: none;
      }

      .cls-2 {
        fill: #906ac0;
      }

      .cls-3 {
        fill: #d0c5ec;
      }

      .cls-4 {
        fill: #543e90;
      }

      .cls-5 {
        fill: #e6dff5;
      }

      .cls-6 {
        font-size: 185.04px;
      }

      .cls-6, .cls-7, .cls-8 {
        fill: #fff;
      }

      .cls-6, .cls-8 {
        font-family: RobotoFlex-LightItalic, 'Roboto Flex';
        font-style: italic;
        font-variation-settings: 'opsz' 14, 'wght' 300, 'GRAD' 0, 'wdth' 100, 'slnt' -10, 'XOPQ' 96, 'YOPQ' 79, 'XTRA' 468, 'YTUC' 712, 'YTLC' 514, 'YTAS' 750, 'YTDE' -203, 'YTFI' 738;
        font-weight: 300;
      }

      .cls-9 {
        clip-path: url(#clippath-1);
      }

      .cls-10 {
        clip-path: url(#clippath-3);
      }

      .cls-11 {
        clip-path: url(#clippath-4);
      }

      .cls-12 {
        clip-path: url(#clippath-2);
      }

      .cls-8 {
        font-size: 131.84px;
      }

      .cls-13 {
        fill: url(#Degradado_sin_nombre_4);
      }

      .cls-14 {
        fill: url(#Degradado_sin_nombre_25);
      }

      .cls-15 {
        clip-path: url(#clippath);
      }
    </style>
    <clipPath id="clippath">
      <path class="cls-1" d="M1430.8,976.46l-331.89,332.01,331.89,332h-379.25l-332-332,332-332.01h379.25ZM1051.55,407.53L435.14,1023.94l189.68,189.68,805.97-806.09h-379.25Z"/>
    </clipPath>
    <clipPath id="clippath-1">
      <path class="cls-1" d="M1430.8,976.46l-331.89,332.01,331.89,332h-379.25l-332-332,332-332.01h379.25ZM1051.55,407.53L435.14,1023.94l189.68,189.68,805.97-806.09h-379.25Z"/>
    </clipPath>
    <clipPath id="clippath-2">
      <path class="cls-1" d="M1430.8,976.46l-331.89,332.01,331.89,332h-379.25l-332-332,332-332.01h379.25ZM1051.55,407.53L435.14,1023.94l189.68,189.68,805.97-806.09h-379.25Z"/>
    </clipPath>
    <clipPath id="clippath-3">
      <path class="cls-1" d="M1430.8,976.46l-331.89,332.01,331.89,332h-379.25l-332-332,332-332.01h379.25ZM1051.55,407.53L435.14,1023.94l189.68,189.68,805.97-806.09h-379.25Z"/>
    </clipPath>
    <linearGradient id="Degradado_sin_nombre_25" data-name="Degradado sin nombre 25" x1="15662.82" y1="-22864.02" x2="17955.62" y2="-20571.21" gradientTransform="translate(-.49 125.97) scale(.06 -.06)" gradientUnits="userSpaceOnUse">
      <stop offset="0" stop-color="#69597c" stop-opacity=".4"/>
      <stop offset="1" stop-color="#69597c" stop-opacity="0"/>
    </linearGradient>
    <clipPath id="clippath-4">
      <path class="cls-1" d="M1430.8,976.46l-331.89,332.01,331.89,332h-379.25l-332-332,332-332.01h379.25ZM1051.55,407.53L435.14,1023.94l189.68,189.68,805.97-806.09h-379.25Z"/>
    </clipPath>
    <radialGradient id="Degradado_sin_nombre_4" data-name="Degradado sin nombre 4" cx="37341.94" cy="36468.86" fx="37341.94" fy="36468.86" r="97920.99" gradientTransform="translate(-112.09 -70.19) scale(.02)" gradientUnits="userSpaceOnUse">
      <stop offset="0" stop-color="#fff" stop-opacity=".1"/>
      <stop offset="1" stop-color="#fff" stop-opacity="0"/>
    </radialGradient>
  </defs>

  <rect class="cls-5" x="0" y="0" width="2048" height="2048" rx="239.16" ry="239.16"/>

  <circle class="cls-3" cx="1024" cy="1024" r="865.12">
    <animate attributeName="r" values="865.12;876;865.12" dur="9s" repeatCount="indefinite"/>
  </circle>
  <circle class="cls-4" cx="1024" cy="1024" r="758.41">
    <animate attributeName="r" values="758.41;748;758.41" dur="9s" repeatCount="indefinite"/>
  </circle>

  <g>
    <animateTransform attributeName="transform" type="translate" values="0 0; 0 -6; 0 0" dur="8s" repeatCount="indefinite"/>

    <g class="cls-15">
      <path class="cls-2" d="M719.67,1308.47l189.56,189.68,521.57-521.69h-379.25l-331.89,332Z"/>
    </g>
    <g class="cls-9">
      <path class="cls-2" d="M1051.55,407.53h379.25l-805.97,806.09-189.68-189.68,616.41-616.41Z"/>
    </g>
    <g class="cls-12">
      <path class="cls-2" d="M909.23,1498.15l142.32,142.2h379.25l-331.89-331.89-189.68,189.68Z"/>
    </g>
    <g class="cls-10">
      <path class="cls-14" d="M1190.55,1400.7l-91.64-92.23-189.68,189.68,281.32-97.45Z"/>
    </g>
    <g class="cls-11">
      <path class="cls-2" d="M719.64,1308.4l189.69-189.69,189.7,189.69-189.7,189.69-189.69-189.69Z"/>
    </g>
    <path class="cls-13" d="M1430.8,976.46l-331.89,332,331.89,332h-379.25l-332-332,332-332h379.25ZM1051.55,407.53L435.14,1023.94l189.68,189.68,805.97-806.09s-379.25,0-379.25,0Z">
      <animate attributeName="opacity" values="0.65;0.95;0.65" dur="7s" repeatCount="indefinite"/>
    </path>
  </g>

  <g>
    <path class="cls-7" d="M336.84,852.3h78.85l23.1,136.04c.75,3.88,1.26,7.33,1.53,10.34.27,3.02.24,6.79-.08,11.31h.81c1.51-4.52,2.96-8.29,4.36-11.31,1.4-3.01,3.07-6.46,5.01-10.34l71.58-136.04h80.46l-41.52,235.25h-61.72l24.24-137.17c.65-3.88,1.51-8.1,2.58-12.68,1.08-4.58,2.04-8.75,2.91-12.52h-1.29c-.97,3.77-2.34,7.94-4.12,12.52-1.78,4.58-3.64,8.81-5.57,12.68l-71.9,137.17h-49.6l-23.1-137.17c-.65-3.88-.97-8.1-.97-12.68v-12.52h-1.29c-.22,3.77-.67,7.94-1.37,12.52-.7,4.58-1.37,8.81-2.02,12.68l-24.24,137.17h-48.15l41.52-235.25Z"/>
    <path class="cls-7" d="M601.33,1015.33h62.53l-.81,4.52c-1.51,8.51-.89,15.22,1.86,20.12,2.75,4.9,8.48,7.35,17.21,7.35s15.59-2.53,20.28-7.59c4.69-5.06,8-12.92,9.94-23.59,1.62-9.69.57-16.94-3.15-21.73-3.72-4.79-10.96-7.19-21.73-7.19h-22.78l7.59-42.98h21.49c8.51,0,15.21-2.37,20.12-7.11,4.9-4.74,8.1-11.47,9.61-20.2,1.4-7.76.94-13.76-1.37-18.02-2.32-4.25-7.08-6.38-14.3-6.38s-12.71,2.1-16.48,6.3c-3.77,4.2-6.36,10.4-7.76,18.58l-.65,3.07h-62.2l.65-2.91c3.45-19.49,13.44-36.06,29.97-49.68,16.53-13.62,38.59-20.44,66.16-20.44,29.19,0,49.01,6.11,59.46,18.34,10.45,12.23,14.27,26.04,11.47,41.44-2.37,14.11-7.38,25.99-15.03,35.63-7.65,9.64-18.26,16.62-31.83,20.92l-.16.65c13.35,3.02,23.05,9.4,29.08,19.15,6.03,9.75,7.81,21.79,5.33,36.11-3.99,22.3-14.6,39.96-31.83,53-17.23,13.03-40.88,19.55-70.93,19.55s-49.55-6.6-61.07-19.79c-11.52-13.19-15.35-30.56-11.47-52.11l.81-5.01Z"/>
    <path class="cls-7" d="M836.09,852.3h165.61l-8.08,45.72h-104.37l-8.24,46.21h89.67l-7.92,44.75h-89.67l-9.21,53.16h106.15l-8.08,45.4h-167.39l41.52-235.25Z"/>
  </g>

  <text class="cls-6" transform="translate(1020.89 990.17)">
    <tspan x="0" y="0">Explode</tspan>
    <animate attributeName="opacity" values="1;0.9;1" dur="6s" repeatCount="indefinite"/>
  </text>
  <text class="cls-8" transform="translate(1089.39 1104.43)">
    <tspan x="0" y="0">for Flutter</tspan>
    <animate attributeName="opacity" values="1;0.92;1" dur="6s" repeatCount="indefinite"/>
  </text>
</svg>
